<?xml version="1.0" encoding="utf-8"?>
<!-- Generator: Adobe Illustrator 22.1.0, SVG Export Plug-In . SVG Version: 6.00 Build 0)  -->
<svg version="1.1" id="Layer_1" xmlns="http://www.w3.org/2000/svg" xmlns:xlink="http://www.w3.org/1999/xlink" x="0px" y="0px"
	 viewBox="0 0 125 130" style="enable-background:new 0 0 125 130;" xml:space="preserve">
<style type="text/css">
	.st0{fill:#1D2020;}
	.st1{fill:#5D9BEB;}
</style>
<g>
	<g>
		<g>
			<path class="st0" d="M13.5,104.1L13.5,104.1c-2,0-3.8,0.6-5.2,1.7v-1.7H5.5v18.6h2.8v-6.1c1.4,1.1,3.2,1.7,5.1,1.7
				c4.4,0,8-3.2,8-7.1C21.5,107.3,17.9,104.1,13.5,104.1z M13.5,115.6c-2.8,0-5.1-2-5.1-4.4c0-2.4,2.3-4.4,5.1-4.4h0
				c2.8,0,5.1,2,5.1,4.4C18.6,113.6,16.3,115.6,13.5,115.6z"/>
		</g>
		<g>
			<path class="st0" d="M42.5,111.2c0-3.9-3.6-7.1-8-7.1c-4.5,0-8,3.1-8,7.1c0,4,3.5,7.1,8,7.1h0.1c2.8,0,5.1-0.9,6.7-2.8l0.9-1
				l-2.4-1.4l-0.6,0.6c-0.8,0.8-2,1.9-4.6,1.9c-2.3,0-4.3-1.2-5-3h12.9V111.2z M29.6,109.9c0.7-1.8,2.6-3,4.9-3c2.3,0,4.3,1.3,5,3
				H29.6z"/>
		</g>
		<g>
			<path class="st0" d="M59.7,104.1v1.5c-1.3-1-2.9-1.5-4.5-1.5c-4.2,0-7.6,3.2-7.6,7.1c0,3.9,3.4,7.1,7.6,7.1
				c1.7,0,3.3-0.6,4.5-1.5v1.5h2.8v-14.2H59.7z M55.1,115.6c-2.6,0-4.8-2-4.8-4.4c0-2.4,2.2-4.4,4.8-4.4c2.5,0,4.5,2,4.5,4.4
				C59.7,113.6,57.6,115.6,55.1,115.6z"/>
		</g>
		<g>
			<polygon class="st0" points="76.5,111.2 86.3,118.3 81.6,118.3 81.2,118 73.7,112.6 72.9,112.6 72.9,118.3 70.1,118.3 70.1,98.9 
				72.9,98.9 72.9,109.9 73.7,109.9 81.6,104.1 86.3,104.1 			"/>
		</g>
		<g>
			<path class="st0" d="M104.5,111.2c0-3.9-3.6-7.1-8-7.1c-4.5,0-8,3.1-8,7.1c0,4,3.6,7.1,8.1,7.1c2.8,0,5.1-0.9,6.7-2.8l0.9-1
				l-2.4-1.4l-0.6,0.6c-0.8,0.8-2,1.9-4.6,1.9h-0.1c-2.3,0-4.2-1.3-4.9-3h12.9V111.2z M91.6,109.9c0.7-1.8,2.6-3,4.9-3
				c2.3,0,4.3,1.3,5,3H91.6z"/>
		</g>
		<g>
			<path class="st0" d="M120.8,104.1v2.7h-1.4c-1.3,0-5.7,0.3-5.7,4.3v7.2h-2.8v-14.2h2.8v1.5c1.5-1,3.4-1.5,5.7-1.5H120.8z"/>
		</g>
	</g>
	<g>
		<g>
			<g>
				<path class="st0" d="M62.6,82.8c-3.6,0-6.6-2.9-6.6-6.6c0-3.6,2.9-6.6,6.6-6.6c3.6,0,6.6,2.9,6.6,6.6
					C69.2,79.8,66.2,82.8,62.6,82.8z M62.6,73.7c-1.4,0-2.6,1.1-2.6,2.6c0,1.4,1.1,2.6,2.6,2.6s2.6-1.1,2.6-2.6
					C65.2,74.8,64,73.7,62.6,73.7z"/>
			</g>
		</g>
		<g>
			<path class="st1" d="M63.1,39.1L63.1,39.1L63.1,39.1C63.1,39.1,63,39,63,39C63.1,39,63.1,39.1,63.1,39.1z"/>
			<path class="st1" d="M83.5,65.7c-0.3-0.3-0.7-0.6-1-0.9C82.8,65.1,83.2,65.4,83.5,65.7c0.2,0.2,0.4,0.4,0.5,0.5
				C83.9,66.1,83.7,65.9,83.5,65.7z M91.6,76.4C91.6,76.4,91.6,76.4,91.6,76.4C91.6,76.5,91.6,76.5,91.6,76.4L91.6,76.4
				C91.6,76.4,91.6,76.4,91.6,76.4z M116.5,8.8c-0.1,0.9-0.2,1.9-0.4,2.8C116.2,10.6,116.4,9.7,116.5,8.8L116.5,8.8z M63.2,39.1
				L63.2,39.1L63.2,39.1L63.2,39.1c0.5,0.4,0.9,0.9,1.4,1.3L63.2,39.1z M66,41.9c0.3,0.3,0.5,0.5,0.7,0.8c0,0,0,0,0,0L66,41.9z"/>
			<path class="st1" d="M116.5,8.8c-0.1,0.9-0.2,1.9-0.4,2.8C116.2,10.6,116.4,9.7,116.5,8.8L116.5,8.8L116.5,8.8
				c-7.9,2.3-15.6,5.4-23,9.2C83.9,22.8,75,28.8,67,35.7l3.7,3.6c7.7-6.5,16.1-12.2,25.1-16.8c6.4-3.3,13.1-6,19.9-8.2
				c-1.1,6.2-2.6,12.3-4.6,18.3C106.1,47,98.7,60.1,89,71.7l-0.1,0.2c-0.1-0.2-0.3-0.4-0.5-0.6c-0.1-0.1-0.2-0.2-0.3-0.3
				c-0.2-0.2-0.4-0.5-0.6-0.7c-0.1-0.1-0.2-0.2-0.3-0.4c0,0,0,0,0,0c-0.5-0.6-1.1-1.3-1.7-2c-0.3-0.3-0.7-0.7-1-1
				c-0.2-0.2-0.3-0.3-0.5-0.5c-0.2-0.2-0.4-0.3-0.6-0.5c-0.3-0.3-0.7-0.6-1-0.9c-2.3-2-4.8-3.7-7.4-4.9c-3.8-1.8-7.8-2.8-11.9-2.8
				c-4.2,0-8.2,0.9-12,2.7c1.3-1.7,2.6-3.4,4-5c1.4-1.7,2.9-3.3,4.4-4.9L56,46.3c-1.6,1.7-3.1,3.4-4.6,5.2
				c-5.3,6.4-10,13.1-14.1,20.2c-0.9,1.6-1.8,3.2-2.6,4.8c1.2,1.4,2.4,2.7,3.7,4c0.8,0.9,1.7,1.7,2.5,2.6c1.2,1.2,2.5,2.4,3.7,3.6
				c5.2,4.3,11.1,6.7,17.1,7.1c0.5,0,1,0,1.5,0c0.4,0,0.9,0,1.3,0c8-0.4,14.4-4.6,18.9-8.7l1.1-1.1c0.1-0.1,0.1-0.1,0.2-0.2
				c1.1-1.1,2.2-2.2,3.2-3.3c1.2-1.3,2.5-2.7,3.7-4c0,0,0,0,0,0c0,0,0,0,0,0c0,0,0,0,0,0c0.1-0.1,0.2-0.2,0.3-0.3
				c10.6-12.3,18.6-26.4,23.9-41.9c2.4-7.1,4.1-14.2,5.2-21.5c0.3-1.8,0.5-3.6,0.7-5.4C120,7.8,118.2,8.2,116.5,8.8z M63.2,88.7
				c-5.4,0-10.6-2-15.3-5.8c0,0,0,0,0,0c-1.2-1.1-2.3-2.2-3.5-3.3c-1.5-1.6-2.6-3.1-3.2-4.1c2.2-3.5,9.4-13.2,22-13.2
				c6,0,11.6,2.4,16.7,7.1c2.5,2.3,4.3,4.7,5.2,6.1C82.6,79,74.6,88.7,63.2,88.7z"/>
		</g>
		<g>
			<g>
				<path class="st0" d="M89,71.7l-0.1,0.2c-0.1-0.2-0.3-0.4-0.5-0.6c-0.1-0.1-0.2-0.2-0.3-0.3c-0.2-0.2-0.4-0.5-0.6-0.7
					c-0.1-0.1-0.2-0.2-0.3-0.4c0,0,0,0,0,0c-0.5-0.6-1.1-1.3-1.7-2c-0.3-0.3-0.7-0.7-1-1c-0.2-0.2-0.3-0.3-0.5-0.5
					c-0.2-0.2-0.4-0.4-0.5-0.5c-0.3-0.3-0.7-0.6-1-0.9c-2.3-2-4.8-3.7-7.4-4.9c-1.3-1.7-4.2-5.2-4.3-5.2c-1.4-1.7-2.8-3.3-4.3-4.9
					c-1.1-1.2-2.3-2.4-3.5-3.6c-0.1-0.1-0.2-0.2-0.3-0.3c-1-1-1.9-1.9-2.9-2.8c-0.1-0.1-0.3-0.2-0.4-0.4h0c0,0,0,0,0,0
					c-8.7-8-18.3-14.7-28.9-20.1c-6.4-3.3-13.1-6-19.9-8.2c1.1,6.2,2.6,12.3,4.6,18.3c4.9,14.4,12.3,27.5,22,39.1
					c-0.9,1.6-1.8,3.2-2.6,4.8c-0.1-0.1-0.2-0.2-0.3-0.3C23.8,63.8,15.7,49.7,10.5,34.2C8.1,27.2,6.4,20,5.3,12.8
					C5,10.9,4.7,9.1,4.5,7.3c1.8,0.4,3.5,0.9,5.3,1.5c7.9,2.3,15.6,5.4,23,9.2C43.4,23.3,53,30,61.8,37.8c0.2,0.2,0.3,0.3,0.5,0.5
					c0.2,0.2,0.4,0.4,0.6,0.5c0,0,0.1,0.1,0.1,0.1c0,0,0.1,0.1,0.1,0.1h0c0.5,0.4,0.9,0.9,1.4,1.3l0.8,0.7c0.3,0.2,0.5,0.5,0.8,0.7
					c0.3,0.3,0.5,0.5,0.7,0.8c0,0,0,0,0,0c2.8,2.8,5.5,5.8,8.1,8.9C80.3,57.9,85,64.6,89,71.7z"/>
				<path class="st0" d="M84.1,66.2c-0.2-0.2-0.4-0.3-0.6-0.5c-0.3-0.3-0.7-0.6-1-0.9c0.3,0.3,0.7,0.6,1,0.9
					C83.7,65.9,83.9,66.1,84.1,66.2z"/>
			</g>
		</g>
	</g>
</g>
</svg>
